<svg xmlns="http://www.w3.org/2000/svg" width="99" height="40" viewBox="0 0 99 40">
    <g fill="#FF0558" fill-rule="evenodd">
        <path d="M28.555 0L26.721 26.651 26.262 26.676 22.38 8.774 16.207 8.774 13.299 27.533 12.682 27.568 9.879 8.774 0 8.774 5.942 39.417 17.056 38.249 19.26 20.945 19.877 20.913 22.843 37.64 31.95 36.683 38.047 0zM42.965 25.586l.951-10.549.85-.013.993 10.38-2.794.182zM39.359 8.774l-4.553 27.608 7.254-.762.446-4.948 3.726-.325.458 4.787 6.483-.681-3.936-25.679H39.36zM83.888 17.74L82.268 17.808 82.268 8.774 77.725 8.774 77.725 31.865 82.268 31.395 82.268 22.125 83.888 22.026 83.888 31.224 87.978 30.794 87.978 8.774 83.888 8.774zM90.613 8.774L89.06 30.681l3.936-.414.125-4.448 1.402-.12.248 4.383 3.472-.365-1.774-20.943h-5.855zm2.85 4.992h.385l.478 8.453-1.106.07.243-8.523zM51.784 15.286L55.565 15.187 55.565 34.201 61.122 33.617 61.122 15.041 64.286 14.958 64.286 8.774 51.784 8.774zM71.727 29.129l-1.544.128v-15.9l1.544-.023v4.332l4.609-.176v-4.242c0-2.826-1.908-4.806-5.38-4.806-3.705 0-5.856 1.98-5.856 4.998v15.192c0 3.148 1.765 4.67 5.778 4.22 3.625-.406 5.535-2.428 5.535-5.447v-4.926l-4.686.279v6.37z"/>
    </g>
</svg>
